# xmcd
#
# Track frame offsets: 
#        150
#        21620
#        39027
#        57485
#
# Disc length: 1011 seconds
#
# Revision: 5
# Processed by: cddbd v1.5.2PL0 Copyright (c) Steve Scherf et al.
# Submitted via: ExactAudioCopy v0.99pb5
#
DISCID=2e03f104
DTITLE=Bryan Adams - Here I Am
DYEAR=2002
DGENRE=Rock
TTITLE0=Here I Am (End Title)
TTITLE1=You Can't Take Me (Alternate Version)
TTITLE2=Cloud Number 9 (Live From Slane Castle)
TTITLE3=Here I Am (Instrumental)
EXTD=ID3G: 0
EXTT0=
EXTT1=
EXTT2=
EXTT3=
PLAYORDER=
